<svg xmlns="http://www.w3.org/2000/svg" viewBox="0 0 498.82 498.82" width="32" height="32">
  <path d="M428.34 108.59c15.6 0 31.21-.03 46.81 0 10.53.02 12.61 3.51 8.13 12.76-13.77 28.37-27.31 56.86-41.12 85.22-10.89 22.35-22.13 44.53-33.07 66.85-17.53 35.77-34.95 71.6-52.41 107.4-1.24 2.54-2.41 5.13-3.78 7.59-3.61 6.49-7.73 6.63-11.46.26-2.04-3.48-3.7-7.2-5.49-10.83-14.5-29.37-28.82-58.83-43.6-88.05-3.03-6-2.52-10.94.25-16.57 18.53-37.54 36.9-75.15 55.37-112.72 7.49-15.23 15.27-30.32 22.56-45.64 2.26-4.74 5.27-6.43 10.39-6.35 15.8.24 31.61.09 47.42.08" style="stroke-width:0">
    <animate attributeName="fill" dur="4s" repeatCount="indefinite" values="red;blue;red"/>
  </path>
  <path d="M153.06 109.67c3.59 1.98 3.4 4.82 5.59 8.07.12.18.24.37.34.57 12.99 26.17 25.84 52.41 38.63 78.68 13.72 28.19 27.27 56.46 40.99 84.64 16.47 33.83 33.04 67.61 49.6 101.4 1.97 4.03.19 8.11-4.26 9.01-1.76.36-3.63.25-5.45.25-30.2.01-60.39-.13-90.59.12-6.89.06-13.18-3.85-16.17-10.06-14.62-30.36-29.51-60.59-44.33-90.86-10.94-22.34-22.02-44.61-32.69-67.07-1.24-2.62-1.34-6.82-.1-9.41 15.5-32.5 31.27-64.88 47.17-97.19 4.53-8.25 6.09-8.68 8.77-8.74.87-.02 1.74.16 2.5.58Zm66.62 254.69c6.48 0 12.97.05 19.45-.01 7.11-.07 7.83-1.15 4.8-7.3-5.98-12.15-12.08-24.24-18.02-36.42-15.59-31.97-31.13-63.97-46.67-95.97-8.12-16.72-16.13-33.5-24.36-50.17-.01-.03-.03-.05-.04-.08-1.81-3.55-7.1-3.56-8.92-.02l-.03.06c-4.73 9.39-8.38 19.42-13.96 28.24-7.41 11.71-6.73 21.37-.2 33.93 20.96 40.33 40.16 81.58 59.95 122.51 1.83 3.78 4.35 5.43 8.56 5.28 6.47-.22 12.96-.06 19.45-.06Z" style="stroke-width:0">
    <animate attributeName="fill" dur="4s" repeatCount="indefinite" values="blue;green;blue"/>
  </path>
  <path d="M278.32 108.58c19.87 0 39.74-.02 59.61.02 2.01 0 4.42-.31 5.94.65 3.11 1.98 6.27 3.89 3.69 9.1-19.13 38.63-37.95 77.41-56.88 116.13-2.49 5.09-4.89 10.23-7.65 15.16-.99 1.76-3.02 4.27-4.4 4.16-1.86-.15-4.28-2.12-5.2-3.95-7.72-15.36-15.13-30.88-22.68-46.33-13.48-27.63-26.94-55.26-40.53-82.84-3.82-7.76-1.45-12.06 7.26-12.09 20.28-.06 40.55-.02 60.83-.02Zm.83 84.21c8.77-17.83 16.93-34.26 24.92-50.78 2.08-4.29-1.21-4.86-4.24-4.88-14.37-.08-28.74-.04-43.11-.03-4.7 0-5.6 2.14-3.61 6.2 7.28 14.87 14.44 29.8 21.75 44.65.73 1.48 2.24 2.57 4.3 4.84Z" style="stroke-width:0">
    <animate attributeName="fill" dur="1s" repeatCount="indefinite" values="green;yellow;green"/>
  </path>
  <path d="M82.13 391.79c-20.06 0-40.13.04-60.19-.02-9.2-.03-11.46-3.65-7.52-11.69 16.03-32.68 32.08-65.35 48.07-98.05 4.62-9.44 9.06-18.96 13.63-28.42.79-1.63 1.65-3.29 2.82-4.64 3.11-3.56 5.91-3.29 7.99.97 13.22 27.07 26.32 54.21 39.53 81.29 7.8 15.99 15.65 31.95 23.62 47.85 4.54 9.05 2.45 12.68-7.77 12.7-20.06.04-40.13.01-60.19.01Zm0-27.96c7.28 0 14.56.03 21.83-.01 4.33-.02 6.02-1.64 3.84-6.04-7.25-14.63-14.32-29.35-21.6-43.98-2.49-5-4.77-5.33-7-.88-7.5 14.95-14.7 30.06-21.99 45.11-1.87 3.86-.5 5.78 3.7 5.79 7.08.02 14.15 0 21.23 0Z" style="stroke-width:0">
    <animate attributeName="fill" dur="1s" repeatCount="indefinite" values="yellow;purple;yellow"/>
  </path>
</svg>